<?xml version="1.0" standalone="no"?>
<!DOCTYPE svg PUBLIC "-//W3C//DTD SVG 20010904//EN"
 "http://www.w3.org/TR/2001/REC-SVG-20010904/DTD/svg10.dtd">
<svg version="1.0" xmlns="http://www.w3.org/2000/svg"
 width="1024.000000pt" height="768.000000pt" viewBox="0 0 1024.000000 768.000000"
 preserveAspectRatio="xMidYMid meet">

<g transform="translate(0.000000,768.000000) scale(0.100000,-0.100000)"
fill="#000000" stroke="none">
<path d="M8920 7385 c0 -21 -5 -25 -30 -25 -25 0 -30 -4 -30 -25 0 -21 5 -25
30 -25 30 0 30 0 30 -58 0 -68 19 -93 72 -95 27 -2 34 2 36 20 3 17 -2 22 -25
25 -26 3 -28 6 -31 56 -3 52 -3 52 27 52 29 0 42 14 33 38 -2 6 -17 12 -33 12
-24 0 -29 4 -29 25 0 20 -5 25 -25 25 -20 0 -25 -5 -25 -25z"/>
<path d="M9073 7348 c88 -217 100 -227 143 -130 l26 57 22 -55 c18 -44 27 -55
45 -55 18 0 28 14 56 78 52 118 52 119 20 115 -23 -2 -31 -12 -49 -55 -11 -29
-23 -53 -26 -53 -3 0 -15 24 -26 53 -31 74 -55 75 -85 3 -12 -31 -25 -56 -28
-56 -4 0 -15 24 -26 53 -17 44 -25 53 -49 55 -21 3 -27 0 -23 -10z"/>
<path d="M9462 7335 c-60 -50 -47 -136 23 -169 75 -36 150 13 150 97 0 84
-107 128 -173 72z m115 -54 c26 -54 -40 -107 -81 -65 -19 19 -21 65 -4 82 21
21 71 10 85 -17z"/>
<path d="M9517 7274 c-14 -15 -6 -34 14 -34 14 0 19 5 17 17 -3 18 -20 27 -31
17z"/>
<path d="M8473 7110 c-34 -21 -63 -66 -63 -100 0 -30 25 -75 56 -99 32 -25
114 -30 114 -7 0 32 -12 46 -34 40 -30 -7 -76 30 -76 62 0 13 9 33 20 44 34
34 81 23 107 -25 10 -17 53 -9 53 10 0 19 -39 64 -70 80 -39 20 -69 19 -107
-5z"/>
<path d="M8731 7093 c-42 -160 -68 -273 -62 -273 3 0 16 -3 27 -6 23 -6 28 3
54 102 11 46 43 64 79 45 29 -16 31 -35 11 -108 -10 -37 -17 -69 -16 -71 2 -2
16 -4 32 -5 27 -2 29 1 45 69 9 40 14 83 12 98 -8 38 -57 76 -100 76 l-35 0 7
38 c13 63 12 67 -17 70 -24 3 -28 -1 -37 -35z"/>
<path d="M9903 7111 c-60 -28 -80 -74 -49 -116 11 -15 25 -18 75 -17 47 1 61
-1 61 -13 0 -17 -30 -35 -58 -35 -19 0 -32 -18 -32 -42 0 -7 17 -9 46 -5 84 9
133 87 84 132 -15 13 -34 18 -75 16 -30 -1 -55 2 -55 7 0 14 23 32 41 32 19 0
34 33 24 50 -8 13 -13 13 -62 -9z"/>
<path d="M9004 7025 c-14 -37 26 -69 53 -42 22 22 8 57 -23 57 -14 0 -27 -7
-30 -15z"/>
<path d="M9647 7011 c-16 -10 -36 -17 -45 -15 -44 11 -44 -8 -6 -159 37 -151
44 -162 83 -138 12 8 13 16 3 49 -16 51 -16 49 18 44 42 -6 96 30 110 74 17
52 5 97 -36 133 -41 36 -85 40 -127 12z m93 -61 c24 -24 25 -48 5 -77 -32 -46
-90 -33 -101 22 -12 64 51 100 96 55z"/>
<path d="M9217 6963 c-4 -3 -27 -5 -52 -5 l-45 2 0 -110 0 -110 30 0 29 0 3
77 c3 75 4 78 31 87 49 17 62 0 65 -88 l3 -76 29 0 29 0 3 77 c3 75 4 78 31
87 49 17 62 0 65 -88 l3 -76 29 0 30 0 0 85 c0 77 -2 88 -24 110 -34 34 -70
40 -118 22 -36 -14 -44 -15 -69 -2 -30 16 -61 19 -72 8z"/>
<path d="M9000 6956 c-1 -1 -6 -47 -13 -104 l-13 -103 30 3 c30 3 31 6 38 58
3 30 9 76 12 101 6 45 6 46 -24 46 -16 0 -30 -1 -30 -1z"/>
<path d="M3075 6668 c-94 -11 -167 -33 -231 -69 -52 -30 -57 -30 -226 -36
-116 -4 -182 -10 -200 -19 -35 -18 -47 -18 -69 2 -15 14 -25 13 -109 -13 -50
-16 -92 -33 -93 -38 -1 -5 21 -18 48 -28 52 -20 143 -24 186 -9 14 6 38 5 58
0 28 -8 41 -6 72 12 21 11 82 32 135 46 134 34 254 33 365 -2 l81 -26 50 31
c69 43 255 101 324 101 49 0 -41 -50 -129 -71 -55 -13 -61 -20 -43 -44 9 -13
32 -18 97 -22 50 -3 90 -10 98 -18 8 -8 17 -47 21 -92 4 -43 11 -85 14 -94 5
-12 -5 -26 -33 -49 -37 -29 -41 -36 -41 -77 0 -58 22 -103 71 -148 56 -50 97
-49 127 4 41 72 157 151 224 151 15 0 57 16 94 35 36 19 80 35 97 35 18 0 68
9 112 19 71 17 83 24 110 57 37 48 83 93 118 117 25 17 27 21 21 72 l-7 54 39
16 c22 9 60 19 87 22 26 3 47 7 47 8 0 1 -7 16 -16 34 l-16 32 -62 -6 c-43 -5
-78 -2 -116 8 -47 14 -143 16 -645 15 -324 -1 -621 -5 -660 -10z"/>
<path d="M5968 6634 c-20 -10 -48 -13 -107 -9 -92 5 -113 -8 -52 -32 22 -9 38
-19 36 -24 -11 -17 38 -19 117 -4 86 16 133 22 181 24 40 2 33 13 -26 39 -60
25 -110 28 -149 6z"/>
<path d="M6717 6625 c-9 -22 38 -53 101 -64 31 -6 79 -16 106 -21 79 -17 135
-70 89 -84 -10 -3 -52 -10 -93 -17 -41 -6 -100 -21 -130 -34 -30 -13 -82 -26
-115 -30 -108 -14 -127 -31 -81 -74 31 -30 58 -85 50 -104 -5 -14 -52 -33 -60
-24 -2 2 1 18 6 36 8 30 5 39 -29 90 -51 75 -95 121 -116 121 -15 0 -17 -7
-12 -54 3 -30 13 -66 23 -81 26 -40 6 -47 -50 -19 -44 22 -53 24 -104 14 -69
-13 -103 -13 -122 0 -13 9 -13 12 3 21 22 13 22 29 -1 29 -10 0 -28 7 -40 16
-46 32 21 79 156 110 65 15 72 19 72 40 0 26 -7 28 -75 25 -80 -4 -218 -62
-243 -101 -6 -11 -15 -37 -18 -59 -6 -39 -5 -41 30 -58 20 -9 35 -22 33 -27
-5 -15 -94 -44 -135 -45 -44 -1 -96 -24 -114 -50 -16 -23 -126 -77 -136 -67
-13 14 15 42 66 66 29 14 52 31 52 37 0 18 -44 38 -176 79 -110 33 -126 36
-209 30 -94 -5 -219 -35 -261 -62 -13 -9 -28 -33 -34 -55 -13 -46 -56 -81
-164 -133 -39 -18 -77 -41 -85 -50 -17 -21 -8 -54 24 -88 28 -31 56 -34 118
-17 48 13 62 3 71 -52 l7 -42 45 6 c70 7 84 27 84 112 0 64 3 76 29 108 38 48
111 108 122 101 12 -7 -2 -32 -35 -63 -31 -30 -32 -40 -5 -85 24 -41 38 -43
110 -20 27 9 52 14 56 11 9 -10 -60 -47 -99 -53 -32 -5 -38 -11 -38 -30 0 -14
-6 -24 -14 -24 -16 0 -21 -13 -32 -72 -5 -34 -11 -39 -48 -49 -50 -14 -139
-14 -166 1 -11 6 -26 24 -35 39 -17 33 -42 61 -55 61 -5 0 -14 -18 -20 -40 -7
-24 -21 -46 -38 -57 -14 -10 -53 -45 -85 -78 -48 -49 -61 -57 -75 -48 -13 8
-16 21 -14 55 3 38 -2 53 -30 93 -30 42 -33 53 -31 112 l1 65 -46 -7 c-94 -14
-115 -26 -140 -80 -13 -27 -37 -65 -54 -84 -48 -54 -53 -73 -33 -124 9 -25 23
-48 31 -51 14 -5 59 43 86 93 18 33 45 41 54 17 3 -8 -6 -32 -20 -53 -28 -40
-34 -79 -13 -86 6 -2 34 2 60 10 50 15 91 10 84 -10 -2 -7 -23 -16 -48 -20
-24 -5 -54 -11 -66 -13 -32 -6 -29 -21 12 -57 39 -34 48 -80 18 -95 -10 -5
-54 -15 -98 -22 -44 -6 -87 -16 -95 -20 -11 -6 -15 -32 -16 -107 -2 -99 6
-133 30 -133 15 0 26 -21 26 -51 0 -11 -27 -48 -59 -83 -55 -59 -59 -67 -59
-109 0 -57 -4 -64 -50 -83 -20 -8 -45 -22 -56 -32 -30 -27 -108 -151 -101
-162 10 -16 1688 -13 1681 3 -20 48 -47 149 -41 155 4 4 44 -33 90 -81 l82
-88 332 2 c182 1 331 5 331 9 0 4 -15 13 -32 21 -18 7 -45 22 -60 33 -27 19
-28 19 -61 1 -21 -11 -43 -16 -59 -12 -26 7 -188 158 -188 176 0 18 50 24 78
10 15 -8 51 -38 80 -66 52 -50 57 -53 107 -53 33 0 70 -8 101 -23 41 -18 66
-22 154 -22 l104 0 21 -32 c11 -17 29 -34 40 -37 11 -3 373 -6 803 -6 l784 0
27 29 c30 33 81 160 81 203 0 17 -24 62 -62 119 -35 50 -67 97 -73 105 -7 11
-5 18 8 25 26 15 21 37 -14 54 -23 13 -37 14 -59 6 -34 -11 -70 -4 -70 14 0
17 61 97 77 102 7 3 15 -7 19 -21 8 -34 31 -47 60 -34 18 8 30 6 56 -10 47
-29 93 -80 115 -127 22 -48 53 -57 77 -23 28 40 20 63 -44 119 -41 35 -57 56
-51 63 6 7 14 34 18 61 6 38 13 51 28 53 76 13 97 24 111 57 17 41 19 167 3
198 -6 12 -21 32 -32 44 -28 31 -13 41 27 19 51 -27 120 -172 140 -293 5 -25
22 -58 47 -88 22 -27 38 -54 35 -61 -2 -6 -10 -30 -17 -53 -15 -51 -32 -67
-100 -89 -47 -16 -57 -25 -81 -68 -36 -64 -33 -84 16 -103 l38 -15 35 43 c44
52 95 79 167 87 34 4 56 12 56 19 0 7 -11 32 -24 57 -13 25 -29 74 -35 109 -6
35 -13 75 -17 89 -5 22 0 28 40 47 48 24 70 51 57 72 -7 10 -20 10 -69 0 -67
-14 -108 -4 -118 28 -3 10 -16 41 -29 68 -13 28 -26 64 -30 81 -4 19 -30 54
-74 98 -75 74 -84 78 -241 80 l-75 1 2 30 c0 17 13 57 28 89 l26 59 97 -7 c53
-3 114 -11 135 -17 48 -13 57 -7 57 40 0 20 6 46 14 56 13 18 15 18 62 -3 l49
-21 9 27 c12 35 25 43 49 31 32 -17 31 -38 -4 -86 -41 -58 -44 -105 -8 -130
13 -10 63 -55 112 -100 48 -46 92 -83 97 -83 12 0 12 12 1 107 -8 69 -11 76
-60 129 -29 31 -50 62 -48 68 2 7 24 10 58 8 51 -3 59 -1 98 32 35 29 51 36
87 36 30 0 44 4 44 13 0 18 -39 53 -73 66 -16 6 -25 15 -22 21 10 17 60 11
142 -15 42 -13 79 -22 82 -20 2 3 0 19 -5 37 -9 31 -14 34 -84 49 -41 9 -120
30 -175 47 -55 17 -129 36 -165 43 -36 6 -75 13 -87 15 -33 6 -28 23 7 31 17
3 30 9 30 14 0 9 -40 39 -52 39 -18 0 -48 -42 -48 -65 l0 -26 -127 5 c-71 3
-166 12 -212 20 -46 9 -131 19 -190 22 -66 5 -122 14 -148 25 -23 10 -70 21
-104 25 -55 6 -63 10 -78 37 -38 71 -50 77 -165 77 -62 0 -107 -4 -111 -10
-11 -17 13 -37 66 -56 56 -21 118 -68 106 -80 -5 -5 -43 -11 -86 -12 -74 -4
-78 -3 -121 30 -25 19 -52 38 -60 43 -8 6 -98 12 -198 15 -202 5 -181 -1 -233
72 -16 22 -23 23 -135 23 -113 0 -121 1 -169 29 -98 57 -124 67 -212 82 -110
17 -120 17 -126 -1z m-828 -1137 c0 -13 -4 -32 -8 -43 -12 -30 4 -52 57 -79
58 -30 100 -72 86 -86 -7 -7 -49 -6 -130 4 -75 9 -155 13 -216 9 -112 -7 -125
2 -90 59 11 18 26 53 32 78 7 25 17 48 22 51 18 11 47 -2 76 -35 45 -51 48
-51 93 9 44 59 80 73 78 33z m468 -3 c1 -5 -17 -32 -41 -59 -30 -33 -43 -56
-40 -70 4 -21 46 -84 110 -164 51 -65 47 -76 -25 -69 -86 7 -101 18 -101 74 0
37 -9 61 -41 115 -34 56 -40 74 -35 101 6 33 36 69 66 80 24 9 103 3 107 -8z
m-1148 -50 c108 -57 138 -86 152 -151 10 -45 10 -60 0 -77 -12 -18 -11 -22 5
-34 10 -7 23 -13 30 -13 6 0 17 -13 24 -30 10 -23 19 -30 40 -30 65 0 76 23
35 76 -14 18 -25 35 -25 38 0 10 61 37 70 31 5 -3 12 -29 16 -57 11 -84 26
-92 155 -86 74 4 112 2 118 -6 20 -24 24 -86 7 -130 -29 -76 -37 -79 -168 -67
-62 6 -142 20 -176 31 -107 34 -132 26 -132 -37 0 -22 -3 -24 -27 -18 -46 11
-175 64 -218 88 -40 22 -40 23 -43 90 -3 62 -5 67 -29 73 -39 10 -193 -3 -217
-19 -70 -46 -202 -71 -247 -47 -41 23 -9 48 85 65 70 13 87 31 66 71 -14 25
-13 28 10 43 13 9 31 24 40 34 59 69 68 75 116 82 27 4 62 11 77 16 24 7 36 4
70 -20 23 -16 57 -45 76 -65 19 -20 50 -41 68 -47 43 -14 40 -38 -6 -61 -52
-26 -55 -33 -30 -62 28 -32 47 -33 59 -2 5 13 19 27 32 31 39 12 59 35 48 56
-17 31 -12 39 21 32 29 -5 30 -4 21 14 -6 11 -53 48 -105 82 -91 60 -107 78
-107 124 0 24 13 22 89 -18z"/>
<path d="M5127 6612 c-89 -24 -100 -36 -65 -67 34 -30 135 -67 159 -60 10 4
24 18 31 32 18 37 30 38 50 3 20 -36 20 -36 143 37 78 46 86 53 60 54 -17 0
-39 2 -50 4 -11 3 -74 7 -140 10 -98 4 -133 2 -188 -13z"/>
<path d="M2680 6480 c-30 -16 -64 -40 -75 -53 -15 -17 -31 -22 -67 -22 -35 0
-52 -6 -72 -24 l-26 -25 21 -22 c24 -26 19 -54 -9 -54 -11 0 -31 -9 -45 -20
-27 -21 -111 -28 -122 -10 -3 5 12 18 33 29 40 20 52 37 52 70 0 10 10 31 22
46 l22 28 -24 -7 c-14 -4 -52 -10 -85 -13 -51 -4 -71 0 -137 26 -111 45 -175
39 -240 -22 -42 -39 -37 -55 20 -59 44 -3 48 -5 58 -37 6 -20 23 -40 40 -50
28 -15 28 -16 6 -19 -12 -2 -42 7 -65 21 -30 17 -67 27 -127 33 -150 15 -238
11 -313 -14 l-68 -24 -128 37 c-162 46 -235 48 -381 12 -58 -14 -131 -35 -162
-47 -52 -19 -58 -25 -58 -49 l0 -28 -101 -5 c-118 -6 -138 -17 -95 -54 15 -14
26 -27 24 -30 -3 -2 -32 -9 -65 -15 -48 -8 -71 -20 -117 -57 -48 -39 -55 -48
-39 -54 88 -35 123 -52 123 -59 0 -5 -7 -9 -15 -9 -8 0 -89 -25 -180 -55 -90
-30 -171 -55 -178 -55 -22 0 -97 -59 -97 -76 0 -9 6 -13 13 -11 6 3 117 40
246 83 l234 77 18 -24 c16 -22 19 -22 45 -9 32 17 90 72 119 114 19 26 23 28
44 16 21 -11 35 -9 96 10 l72 23 72 -28 c45 -17 78 -36 88 -51 15 -23 14 -26
-5 -47 -17 -18 -19 -31 -15 -69 5 -44 4 -48 -21 -58 -28 -10 -37 -50 -12 -50
18 0 46 27 46 44 0 17 38 51 47 43 9 -9 -29 -120 -44 -130 -18 -11 -16 -35 6
-63 33 -42 14 -93 -83 -218 l-60 -78 -3 -111 c-3 -115 8 -157 42 -157 11 0 15
-12 15 -47 l0 -48 -30 53 c-21 36 -37 52 -51 52 -18 0 -20 -5 -14 -37 8 -49
82 -183 103 -185 9 0 25 -1 35 0 13 1 17 -6 17 -33 0 -22 6 -38 15 -41 10 -4
15 -20 15 -50 0 -46 21 -69 70 -79 17 -3 20 -1 15 13 -20 50 -64 192 -69 222
-4 24 -1 43 8 55 12 17 17 8 56 -94 30 -77 56 -126 83 -157 l39 -44 128 0 127
0 5 51 c10 100 101 187 211 201 198 25 285 19 306 -20 5 -10 9 -34 8 -54 -1
-41 29 -83 71 -99 39 -15 20 -37 -58 -67 -19 -7 -8 -9 48 -8 l72 1 0 51 c0 39
-8 67 -35 118 -55 107 -50 123 71 209 55 40 117 105 149 158 12 20 60 61 116
99 53 36 117 84 141 106 25 23 57 49 72 59 25 17 27 17 47 -1 33 -29 105 -24
176 13 76 40 80 58 12 66 -57 7 -86 24 -69 41 21 21 9 35 -35 42 -25 3 -45 10
-45 15 0 5 20 9 45 9 36 0 45 3 45 18 0 11 5 8 15 -12 8 -15 15 -41 15 -57 0
-22 5 -29 20 -29 16 0 20 7 20 38 0 35 3 39 53 65 59 31 85 34 93 12 7 -18
-11 -42 -49 -65 l-28 -17 71 -23 c57 -18 76 -21 95 -12 29 13 31 28 10 68 -8
16 -15 55 -15 87 0 57 -23 127 -41 127 -18 0 -39 61 -39 115 0 65 -15 77 -57
47 -41 -29 -74 -37 -84 -21 -12 19 -11 59 0 59 5 0 17 7 26 17 23 23 75 23 75
1 0 -11 8 -18 20 -18 17 0 20 7 20 44 0 44 1 45 48 62 150 54 157 65 92 128
-43 41 -48 60 -25 90 8 11 15 23 15 27 0 9 -57 29 -82 29 -11 0 -35 7 -54 16
-57 27 -334 6 -355 -27 -5 -8 -9 -28 -9 -45 0 -24 -5 -33 -22 -38 -42 -11 -57
-6 -73 24 -23 45 -19 58 24 70 49 13 60 38 29 62 -22 18 -18 18 152 13 176 -6
209 -2 197 28 -6 16 -50 23 -197 32 -92 6 -97 5 -150 -25z m240 -200 c0 -10
-5 -31 -12 -45 -15 -34 -6 -40 31 -21 40 21 48 20 27 -3 -20 -22 -55 -37 -108
-46 -38 -6 -45 -13 -29 -30 5 -6 7 -24 4 -41 -5 -29 -6 -30 -59 -30 -45 1 -56
-3 -70 -22 -22 -32 -65 -27 -78 11 -13 36 0 48 55 51 51 3 63 25 28 49 -21 15
-21 16 20 36 22 12 41 28 41 36 0 16 103 74 133 75 10 0 17 -7 17 -20z m-410
-235 c0 -48 2 -55 20 -55 17 0 20 7 20 45 0 44 0 44 20 28 11 -10 20 -22 20
-29 0 -20 36 -45 69 -47 36 -2 35 -1 19 -30 -7 -12 -12 -47 -13 -77 l0 -55
-69 -45 c-37 -25 -75 -58 -83 -74 -9 -18 -20 -26 -30 -22 -8 3 -21 6 -29 6
-12 0 -14 9 -9 43 8 53 -8 73 -63 82 -111 18 -119 24 -137 97 -6 23 -2 33 25
58 18 16 36 30 41 30 5 0 9 -18 9 -40 0 -33 3 -40 20 -40 17 0 20 7 20 47 0
37 3 44 12 35 18 -18 73 -14 92 7 9 10 20 35 23 55 9 55 23 43 23 -19z m428
34 c36 -14 21 -59 -19 -59 -21 0 -49 36 -49 63 0 19 7 18 68 -4z m-488 -13 c0
-20 -28 -46 -49 -46 -32 0 -31 13 2 36 38 27 47 29 47 10z"/>
<path d="M4275 6203 c-60 -2 -113 -7 -118 -12 -11 -11 21 -131 40 -153 21 -23
29 -23 132 8 109 33 133 48 126 77 -3 12 -7 36 -8 52 -3 34 5 33 -172 28z"/>
<path d="M8624 4645 c-10 -25 3 -42 30 -41 32 2 39 10 31 35 -8 25 -53 29 -61
6z"/>
<path d="M1264 4524 c-10 -57 4 -83 65 -115 29 -16 58 -26 64 -22 6 3 7 1 3
-5 -4 -7 14 -23 46 -42 54 -31 68 -33 154 -15 25 6 33 3 47 -19 30 -45 71 -76
109 -82 45 -8 63 -26 77 -79 10 -39 49 -75 81 -75 6 0 31 -16 53 -36 37 -32
47 -35 83 -30 54 7 64 -5 63 -78 -1 -81 -8 -100 -48 -141 -19 -19 -29 -35 -23
-35 14 0 23 -27 15 -46 -4 -12 -14 -14 -34 -10 -34 7 -37 -8 -10 -43 14 -19
17 -31 10 -55 -5 -16 -13 -34 -19 -40 -17 -17 -11 -43 19 -75 17 -18 31 -35
33 -39 2 -4 7 -6 11 -4 5 1 5 -2 2 -8 -4 -7 2 -21 13 -33 10 -12 37 -64 58
-116 45 -109 72 -140 156 -178 82 -37 118 -85 118 -160 l0 -53 489 0 489 0 11
33 c22 72 32 150 26 201 -9 71 6 115 61 177 61 69 71 87 79 139 12 80 -15 111
-105 122 -16 2 -30 14 -40 33 -14 28 -20 30 -86 36 -58 6 -79 12 -115 39 -36
25 -50 30 -76 25 -19 -3 -33 -2 -33 4 0 5 -9 12 -20 16 -13 4 -25 23 -35 56
-30 102 -58 128 -200 185 -79 31 -86 37 -115 115 -25 65 -52 85 -102 75 -109
-21 -131 -20 -210 18 -84 40 -121 44 -158 19 -48 -33 -95 -77 -92 -87 2 -6 0
-8 -4 -3 -4 4 -15 0 -25 -9 -28 -25 -142 -4 -182 33 -28 27 -29 30 -24 103 3
41 3 81 0 88 -3 6 -18 12 -34 12 -53 0 -133 43 -111 60 21 16 83 122 80 137
-9 47 -93 19 -143 -48 -16 -22 -45 -49 -62 -60 -28 -18 -38 -19 -67 -9 -29 9
-38 20 -54 63 -11 29 -21 61 -23 72 -4 19 -13 20 -131 23 l-127 3 -7 -37z
m890 -789 c8 -23 -4 -45 -25 -45 -11 0 -22 7 -25 15 -9 23 3 45 25 45 10 0 21
-7 25 -15z m90 9 c23 -9 20 -41 -4 -49 -25 -8 -40 1 -40 24 0 29 14 37 44 25z
m100 0 c9 -3 16 -14 16 -24 0 -20 -23 -32 -45 -24 -18 7 -20 40 -2 47 6 3 13
6 14 6 1 1 8 -2 17 -5z m101 -24 c0 -16 -6 -26 -18 -28 -19 -4 -32 20 -23 44
9 25 41 13 41 -16z m105 0 c0 -23 -4 -30 -20 -30 -23 0 -35 22 -26 45 3 8 15
15 26 15 16 0 20 -7 20 -30z m98 6 c5 -24 -10 -38 -31 -30 -20 7 -23 40 -4 47
19 8 32 2 35 -17z m96 18 c9 -3 16 -14 16 -24 0 -20 -23 -32 -45 -24 -18 7
-20 40 -2 47 6 3 13 6 14 6 1 1 8 -2 17 -5z m106 -9 c10 -12 10 -18 0 -30 -25
-30 -61 -7 -46 30 3 8 12 15 19 15 8 0 20 -7 27 -15z m104 0 c8 -23 -4 -45
-25 -45 -22 0 -34 22 -25 45 3 8 14 15 25 15 10 0 21 -7 25 -15z m95 2 c15
-19 -10 -53 -33 -44 -16 6 -22 38 -9 50 10 11 30 8 42 -6z m-824 -567 c10 -11
16 -20 13 -20 -3 0 -13 9 -23 20 -10 11 -16 20 -13 20 3 0 13 -9 23 -20z"/>
<path d="M2077 4550 c85 -13 87 -14 80 -65 -4 -29 -3 -47 6 -52 6 -4 108 -17
227 -29 118 -12 223 -25 233 -29 12 -5 17 -3 17 8 0 24 -21 34 -87 41 -35 4
-86 15 -115 26 -143 51 -195 73 -211 88 -13 12 -41 16 -110 18 -78 2 -84 1
-40 -6z"/>
<path d="M4160 4537 c0 -12 12 -40 25 -62 33 -53 32 -69 -10 -138 -41 -67 -42
-80 -15 -114 11 -14 20 -31 20 -38 0 -7 9 -24 20 -38 46 -58 51 -77 29 -118
-38 -75 -16 -164 48 -194 44 -21 96 -13 129 20 26 26 53 24 93 -6 59 -47 142
-28 186 40 14 23 30 41 35 41 6 0 10 -22 10 -50 0 -43 3 -50 20 -50 17 0 20 7
20 50 l0 50 40 0 c33 0 40 3 40 19 0 11 -6 22 -12 24 -7 3 -3 6 10 6 18 1 22
-4 22 -28 0 -16 7 -34 15 -41 8 -7 15 -28 15 -46 0 -27 4 -34 20 -34 14 0 20
7 20 24 0 22 3 24 43 19 62 -8 74 -23 60 -75 -10 -36 -10 -45 2 -54 21 -16 18
-42 -5 -49 -26 -8 -25 -29 1 -66 l20 -29 -50 0 c-44 0 -51 -3 -51 -19 0 -15 8
-21 33 -23 l32 -3 3 -102 c2 -95 4 -103 22 -103 19 0 20 7 20 105 0 58 4 105
9 105 4 0 23 -33 42 -72 45 -97 47 -186 6 -265 -47 -90 -36 -180 35 -295 l23
-37 356 -1 356 0 6 46 c4 42 13 54 102 145 l97 99 -6 45 c-4 25 -18 89 -31
142 -27 107 -31 182 -14 216 7 12 56 66 110 119 54 53 106 109 116 125 10 16
37 53 60 83 72 96 103 163 103 225 0 37 -4 55 -12 56 -29 3 -67 -3 -141 -22
-70 -18 -80 -18 -107 -4 -16 8 -44 36 -62 62 -18 26 -66 80 -107 119 -72 70
-74 73 -83 135 -4 35 -14 67 -21 71 -6 4 -402 8 -879 8 l-868 -1 0 -22z m144
-549 c-3 -4 15 -22 41 -40 25 -17 45 -37 45 -44 0 -16 -39 -44 -62 -44 -23 0
-67 41 -69 65 -5 60 1 75 25 73 14 -1 22 -6 20 -10z m333 -92 c-8 -23 -54 -41
-83 -31 -33 12 -43 46 -11 37 11 -3 18 -1 15 4 -4 5 13 7 38 5 28 -2 44 -7 41
-15z m507 -152 c18 -7 22 -39 6 -49 -6 -3 -19 -3 -30 0 -22 7 -27 40 -7 48 6
3 13 6 14 6 1 1 8 -2 17 -5z m101 -24 c0 -29 -32 -41 -41 -16 -9 24 4 48 23
44 12 -2 18 -12 18 -28z m104 16 c15 -18 3 -46 -20 -46 -22 0 -34 22 -25 45 7
19 30 19 45 1z m95 8 c23 -9 20 -41 -4 -49 -25 -8 -40 1 -40 24 0 29 14 37 44
25z m100 0 c9 -3 16 -14 16 -24 0 -20 -23 -32 -45 -24 -18 7 -20 40 -2 47 6 3
13 6 14 6 1 1 8 -2 17 -5z m106 -24 c0 -23 -4 -30 -20 -30 -11 0 -23 7 -26 15
-9 23 3 45 26 45 16 0 20 -7 20 -30z m104 14 c7 -19 -10 -44 -31 -44 -17 0
-27 24 -19 45 7 20 42 19 50 -1z m90 10 c23 -9 20 -41 -4 -49 -25 -8 -40 1
-40 24 0 29 14 37 44 25z m114 -18 c2 -10 -1 -23 -6 -28 -15 -15 -52 1 -52 22
0 33 52 39 58 6z m87 -6 c0 -29 -32 -41 -41 -16 -9 24 4 48 23 44 12 -2 18
-12 18 -28z m105 14 c11 -12 11 -18 -2 -30 -18 -18 -48 -8 -48 15 0 33 28 42
50 15z"/>
<path d="M6040 4549 c0 -6 16 -37 36 -69 38 -61 64 -136 64 -182 0 -15 9 -37
20 -48 38 -38 93 -23 288 75 120 61 184 120 217 198 l15 36 -320 1 c-230 0
-320 -3 -320 -11z"/>
<path d="M6983 4547 c2 -7 33 -16 70 -22 55 -8 65 -13 57 -25 -21 -33 -11 -96
24 -147 49 -72 72 -121 91 -194 9 -35 21 -81 26 -101 6 -23 16 -38 25 -38 8 0
13 3 11 8 -3 4 5 7 16 8 12 0 33 2 47 5 22 3 25 0 28 -26 5 -56 31 -104 54
-105 4 0 14 13 23 29 13 26 13 34 0 73 -8 24 -30 55 -47 71 -29 24 -31 29 -20
48 10 15 11 39 7 84 -4 38 -3 76 4 97 11 33 184 214 226 236 14 8 -74 11 -313
11 -251 0 -332 -3 -329 -12z"/>
<path d="M7744 4532 c4 -15 15 -38 25 -52 10 -14 22 -37 26 -50 12 -39 43 -96
61 -115 16 -16 18 -15 41 9 32 35 53 34 53 -3 0 -16 7 -48 15 -72 9 -26 15
-72 14 -114 -2 -79 4 -94 61 -160 41 -47 50 -81 28 -103 -19 -19 -26 -15 -84
40 -42 40 -57 49 -66 40 -10 -10 -8 -19 5 -40 10 -15 33 -57 50 -94 21 -45 38
-68 49 -68 21 0 47 -42 30 -48 -12 -4 39 -78 112 -165 64 -76 143 -110 296
-127 43 -5 118 -21 167 -36 110 -34 193 -37 247 -9 27 13 41 28 43 44 4 25 7
25 -82 2 -51 -13 -162 -14 -170 -1 -3 6 -18 10 -33 10 -79 1 -367 95 -378 124
-3 7 -1 32 5 56 13 59 1 84 -48 99 -29 8 -45 20 -52 37 -11 30 -3 48 17 40 11
-4 14 5 14 39 0 52 -17 86 -84 172 -26 34 -55 74 -63 89 -17 33 -28 106 -20
129 10 26 60 -2 132 -74 l64 -64 44 27 c49 28 87 80 87 117 0 13 -18 49 -40
79 -75 102 -120 173 -120 187 0 7 12 18 27 24 14 5 32 17 39 27 10 14 14 14
29 2 12 -10 15 -23 11 -46 -6 -31 10 -84 25 -84 4 0 15 22 24 49 17 52 32 69
79 94 27 13 -2 15 -328 16 l-358 1 6 -28z m535 -385 c-2 -1 -13 -9 -24 -17
-19 -14 -19 -14 -6 3 7 9 18 17 24 17 6 0 8 -1 6 -3z m-131 -421 c5 -24 -10
-38 -31 -30 -17 6 -23 35 -10 48 12 12 38 1 41 -18z"/>
<path d="M8690 4390 c-14 -20 -19 -37 -15 -52 20 -69 60 -156 82 -180 24 -25
25 -32 21 -97 l-5 -70 30 -10 c16 -6 34 -8 40 -4 5 3 7 1 4 -5 -4 -6 12 -17
40 -26 61 -21 76 -9 64 49 -5 22 -12 56 -15 76 -7 40 -90 135 -138 158 -25 13
-34 36 -44 110 -4 33 -25 81 -35 81 -4 0 -17 -13 -29 -30z"/>
<path d="M8561 3972 c-11 -16 -17 -33 -13 -37 4 -5 2 -5 -5 -2 -7 4 -20 -7
-33 -28 -27 -44 -60 -66 -108 -75 l-37 -6 2 -98 c2 -130 10 -141 100 -149 37
-3 78 -9 89 -12 19 -6 25 0 44 52 16 44 19 62 11 75 -26 42 4 75 39 43 18 -16
20 -16 26 -1 3 9 1 22 -5 30 -7 8 -10 45 -9 94 3 68 0 85 -18 109 -29 39 -57
41 -83 5z m-116 -252 c0 -29 -32 -41 -41 -16 -9 24 4 48 23 44 12 -2 18 -12
18 -28z m109 15 c8 -23 -4 -45 -25 -45 -22 0 -34 22 -25 45 3 8 14 15 25 15
10 0 21 -7 25 -15z"/>
<path d="M8750 3768 c-12 -13 -16 -24 -10 -26 5 -2 10 -15 10 -29 0 -20 -4
-24 -20 -20 -16 4 -20 -2 -25 -42 -4 -25 -9 -58 -11 -73 -3 -14 0 -29 5 -33
19 -11 84 14 118 47 l33 32 48 -16 c36 -11 64 -13 107 -7 67 9 105 4 155 -21
19 -10 61 -21 93 -25 67 -9 80 -25 48 -59 -11 -12 -21 -25 -21 -29 0 -4 25
-18 55 -32 30 -13 71 -36 90 -51 l36 -27 32 29 c17 16 33 32 35 37 10 21 64 4
109 -33 55 -46 64 -54 78 -62 7 -4 10 17 10 59 0 65 0 65 48 108 26 24 47 48
47 53 0 6 6 12 13 15 9 4 9 7 0 18 -10 10 -17 10 -37 -1 -14 -7 -23 -16 -21
-20 2 -4 -1 -7 -8 -8 -7 0 -37 -8 -67 -16 -81 -23 -93 -21 -152 29 -58 50
-144 95 -180 95 -13 0 -39 -11 -58 -25 -19 -14 -38 -25 -44 -25 -5 0 -30 23
-55 51 -44 48 -47 50 -73 37 -16 -7 -28 -19 -28 -26 0 -7 -12 -17 -27 -22 -16
-6 -36 -14 -45 -20 -19 -11 -22 -7 -32 35 -10 44 -27 85 -36 85 -5 0 -11 -17
-15 -38 -11 -65 -19 -70 -54 -31 -17 18 -31 42 -31 51 0 20 -54 58 -82 58 -10
0 -27 -10 -38 -22z m100 -49 c0 -26 -3 -30 -22 -27 -26 3 -37 36 -16 49 25 17
38 9 38 -22z"/>
<path d="M4417 3593 c-4 -3 -7 -60 -7 -125 l0 -118 73 0 c60 0 77 4 95 20 28
27 29 74 1 93 -14 10 -17 17 -9 22 19 12 28 49 17 72 -5 12 -23 27 -40 33 -33
11 -120 14 -130 3z m130 -49 c10 -27 -11 -49 -51 -52 -35 -3 -36 -2 -36 32 0
35 1 36 40 36 28 0 43 -5 47 -16z m-3 -100 c30 -29 13 -54 -43 -61 l-41 -6 0
42 c0 40 1 41 34 41 19 0 42 -7 50 -16z"/>
<path d="M4630 3475 l0 -125 75 0 c68 0 75 2 75 20 0 18 -7 20 -55 20 l-55 0
0 35 0 35 50 0 c38 0 50 4 50 15 0 11 -12 15 -50 15 l-50 0 0 35 0 35 55 0
c48 0 55 2 55 20 0 18 -7 20 -75 20 l-75 0 0 -125z"/>
<path d="M4810 3476 l0 -126 70 0 c63 0 70 2 70 20 0 17 -7 20 -45 20 l-44 0
-3 103 c-3 97 -4 102 -25 105 -23 3 -23 2 -23 -122z"/>
<path d="M9942 3568 c-7 -7 -12 -21 -12 -32 0 -12 -13 -49 -30 -84 -25 -54
-27 -63 -12 -60 9 2 31 24 49 50 l31 47 18 -72 c39 -157 13 -345 -63 -456 -32
-46 -142 -142 -175 -153 -7 -3 -8 -9 -4 -16 9 -15 42 -2 103 42 78 56 154 170
184 276 19 68 15 222 -9 313 l-20 78 27 -25 c31 -29 51 -33 51 -11 0 22 -89
115 -109 115 -10 0 -22 -5 -29 -12z"/>
<path d="M9423 3253 c-9 -21 -21 -71 -27 -112 -13 -91 -27 -103 -85 -77 -50
23 -71 64 -71 139 0 31 -5 59 -10 62 -6 4 -53 9 -104 12 -92 6 -93 6 -114 -22
-12 -15 -22 -36 -22 -45 0 -23 -20 -30 -81 -30 -42 0 -54 -5 -82 -32 -19 -18
-49 -55 -67 -81 -45 -63 -124 -102 -239 -117 -86 -12 -121 -25 -121 -47 0 -10
126 -13 610 -13 336 0 610 2 610 4 0 2 -11 28 -25 58 -13 29 -30 78 -36 108
-20 101 -59 218 -75 224 -32 12 -45 5 -61 -31z"/>
<path d="M4803 3254 c-3 -9 -3 -59 0 -112 5 -95 5 -97 -13 -74 -15 19 -50 31
-50 18 0 -11 73 -126 80 -126 4 0 12 6 19 13 13 16 40 119 34 130 -9 15 -23 6
-24 -15 -2 -55 -17 30 -18 105 -1 73 -13 99 -28 61z"/>
<path d="M2410 2683 c0 -87 5 -176 10 -198 6 -22 10 -75 10 -118 0 -50 6 -89
15 -107 13 -25 18 -52 24 -128 1 -7 12 -17 27 -22 23 -9 25 -14 23 -72 -2 -82
21 -181 51 -213 35 -37 172 -120 193 -117 16 3 17 -1 12 -31 -4 -19 -2 -37 3
-41 18 -11 190 -18 196 -7 8 12 -42 48 -91 65 -32 11 -43 22 -66 72 -28 56
-29 76 -12 131 6 18 0 29 -24 50 -37 32 -40 64 -11 111 21 34 27 72 11 72 -5
0 -12 7 -15 15 -4 11 3 17 25 22 21 4 34 14 40 32 6 17 28 36 64 55 66 34 77
60 46 109 -30 48 -27 57 18 57 49 0 95 36 112 88 6 20 25 61 42 91 23 42 31
68 33 119 1 35 7 69 12 74 5 5 36 18 68 28 l59 18 -437 1 -438 1 0 -157z"/>
<path d="M5196 2809 c-15 -77 -8 -110 32 -148 58 -57 62 -64 77 -151 15 -86
35 -130 59 -130 8 0 47 13 88 29 40 15 95 36 121 46 99 36 192 134 224 235 15
45 24 58 51 71 37 17 52 35 52 62 0 16 -23 17 -349 17 l-348 0 -7 -31z"/>
<path d="M8404 2818 c4 -13 10 -49 13 -80 5 -51 2 -64 -33 -138 -38 -81 -38
-83 -21 -112 9 -16 17 -38 17 -48 0 -27 15 -28 104 -5 108 29 166 38 166 25 0
-6 33 -10 80 -10 79 0 80 0 80 25 0 31 13 32 33 1 20 -30 49 -37 81 -20 l26
13 0 -45 c0 -37 3 -44 20 -44 18 0 20 7 20 58 1 52 2 55 15 38 8 -11 15 -30
15 -43 0 -17 6 -23 23 -23 34 0 47 -19 47 -66 0 -40 2 -44 35 -55 20 -7 42
-23 50 -36 9 -13 23 -23 33 -23 10 0 28 -7 40 -16 28 -19 30 -54 2 -54 -23 0
-88 -55 -78 -65 9 -10 110 31 143 57 17 13 25 30 25 51 1 48 16 67 122 156 53
44 99 85 103 91 3 5 15 6 28 1 60 -23 112 17 110 82 -1 23 -3 85 -5 137 -3 68
-9 106 -23 133 l-19 37 -629 0 -629 0 6 -22z m1266 -279 c0 -34 -19 -59 -46
-59 l-25 0 28 40 c31 44 43 50 43 19z m-730 -39 c0 -6 -7 -13 -15 -16 -18 -7
-48 3 -41 14 7 12 56 13 56 2z"/>
<path d="M6804 2644 c-11 -16 -49 -59 -86 -97 -38 -37 -68 -70 -68 -73 0 -8
42 -4 63 7 12 7 39 26 61 42 l38 31 -7 -65 c-19 -165 -72 -299 -174 -437 -92
-123 -242 -211 -388 -228 -52 -5 -63 -10 -63 -25 0 -41 142 -15 276 51 142 69
267 206 330 360 27 68 58 196 69 295 l7 60 19 -49 c27 -73 59 -89 59 -31 0 26
-39 149 -55 172 -1 2 -15 6 -32 9 -26 5 -33 2 -49 -22z"/>
<path d="M9737 2623 c-4 -3 -7 -44 -7 -90 0 -76 2 -83 20 -83 18 0 20 7 20 56
0 59 13 94 34 94 7 0 17 -9 22 -20 6 -14 13 -17 23 -10 12 7 13 13 3 34 -12
27 -49 35 -69 15 -8 -8 -13 -8 -17 0 -8 12 -20 14 -29 4z"/>
<path d="M10171 2358 c-31 -86 -45 -102 -110 -135 -35 -17 -81 -47 -101 -66
-21 -19 -76 -53 -123 -77 -84 -41 -127 -72 -127 -90 0 -19 42 -38 68 -30 65
18 156 75 225 139 42 39 99 82 128 97 63 32 75 43 94 87 15 37 13 70 -6 93
-19 23 -36 16 -48 -18z"/>
<path d="M5836 2024 c-9 -8 -16 -26 -16 -39 0 -14 -7 -25 -20 -28 -11 -3 -20
-10 -20 -17 0 -7 9 -14 20 -17 18 -5 20 -14 20 -74 0 -62 2 -69 20 -69 11 0
19 3 19 8 -1 4 -1 35 0 69 1 60 2 62 29 65 38 4 35 32 -4 38 -28 4 -31 8 -23
28 9 25 19 28 37 10 9 -9 15 -9 23 -1 8 8 4 15 -12 27 -29 20 -53 20 -73 0z"/>
<path d="M5284 2019 c-3 -6 0 -17 7 -25 18 -17 44 -2 36 20 -7 18 -33 21 -43
5z"/>
<path d="M4560 2005 c0 -10 10 -15 30 -15 l30 0 0 -105 0 -105 25 0 25 0 0
105 0 105 35 0 c24 0 35 5 35 15 0 12 -17 15 -90 15 -73 0 -90 -3 -90 -15z"/>
<path d="M4758 1953 c0 -5 -2 -45 -2 -90 -1 -73 1 -83 17 -83 14 0 17 9 17 49
0 27 4 61 10 75 11 31 40 34 47 7 6 -23 33 -17 33 8 0 38 -46 54 -73 26 -13
-13 -16 -13 -21 0 -6 16 -25 21 -28 8z"/>
<path d="M4925 1935 c-56 -55 -17 -159 60 -159 69 0 106 74 70 143 -25 49 -90
57 -130 16z m83 -21 c38 -27 23 -104 -21 -104 -31 0 -47 18 -47 54 0 26 23 66
39 66 4 0 17 -7 29 -16z"/>
<path d="M5097 1953 c-2 -5 -3 -60 -2 -123 1 -100 3 -115 18 -118 14 -3 17 5
17 43 0 42 2 45 19 35 34 -18 78 -12 95 12 25 36 21 104 -9 133 -27 28 -66 32
-86 9 -11 -14 -13 -14 -21 0 -10 17 -24 21 -31 9z m121 -82 c6 -59 -43 -83
-73 -37 -18 28 -11 71 14 86 25 14 55 -12 59 -49z"/>
<path d="M5290 1871 c0 -85 1 -91 20 -91 20 0 21 5 18 87 -3 74 -6 88 -20 91
-16 3 -18 -6 -18 -87z"/>
<path d="M5383 1938 c-62 -69 -11 -183 73 -162 23 6 64 47 64 65 0 17 -35 9
-48 -11 -7 -11 -23 -20 -37 -20 -48 0 -57 86 -12 114 15 9 22 7 37 -12 20 -24
40 -22 40 3 0 20 -40 45 -70 45 -15 0 -36 -10 -47 -22z"/>
<path d="M5638 1940 c-53 -41 -40 -137 22 -158 69 -24 127 34 113 112 -11 58
-87 84 -135 46z m77 -24 c35 -25 17 -106 -24 -106 -26 0 -40 14 -47 47 -5 24
-1 36 15 52 25 25 31 26 56 7z"/>
<path d="M4573 1540 c-46 -19 -71 -93 -54 -157 20 -73 87 -108 154 -79 36 14
73 67 62 86 -8 13 -35 13 -35 0 0 -19 -48 -60 -70 -60 -37 0 -70 44 -70 92 0
55 22 88 59 88 27 0 61 -26 61 -47 0 -6 9 -9 20 -6 28 7 25 30 -9 64 -31 30
-73 37 -118 19z"/>
<path d="M5297 1536 c-7 -17 18 -40 33 -31 5 3 10 15 10 26 0 23 -35 27 -43 5z"/>
<path d="M4782 1464 c-25 -17 -29 -39 -7 -48 9 -3 19 3 25 14 12 23 42 26 59
7 15 -18 -5 -37 -40 -37 -15 0 -37 -9 -50 -19 -20 -16 -22 -23 -14 -47 8 -23
17 -30 42 -32 18 -2 40 1 50 6 12 7 23 6 38 -4 18 -12 24 -12 40 0 18 13 18
14 -3 25 -18 10 -22 20 -22 66 0 44 -4 57 -22 69 -12 9 -34 16 -48 16 -14 0
-36 -7 -48 -16z m76 -106 c-3 -26 -43 -37 -62 -18 -8 8 -6 15 8 26 31 22 58
18 54 -8z"/>
<path d="M5007 1463 c-11 -11 -17 -13 -17 -5 0 7 -8 12 -18 12 -16 0 -18 -11
-17 -117 0 -104 2 -118 18 -121 14 -3 17 4 17 42 l0 45 32 -14 c28 -11 37 -11
59 1 31 16 39 32 39 83 0 74 -69 118 -113 74z m71 -72 c6 -59 -43 -83 -73 -37
-18 28 -11 71 14 86 25 14 55 -12 59 -49z"/>
<path d="M5150 1390 c0 -83 1 -90 20 -90 18 0 20 7 20 64 0 46 4 67 16 77 14
11 18 11 29 -5 8 -10 20 -16 29 -14 13 2 14 7 3 28 -15 31 -43 37 -67 15 -16
-14 -18 -14 -23 0 -4 8 -11 15 -17 15 -6 0 -10 -35 -10 -90z"/>
<path d="M5307 1474 c-4 -4 -7 -45 -7 -91 0 -77 2 -83 20 -83 20 0 21 5 18 87
-3 79 -12 106 -31 87z"/>
<path d="M5393 1458 c-29 -32 -36 -72 -19 -112 16 -39 63 -61 100 -46 23 8 56
46 56 62 0 16 -36 7 -48 -12 -7 -11 -23 -20 -37 -20 -48 0 -57 86 -12 114 15
9 22 7 37 -11 10 -13 23 -23 29 -23 20 0 12 38 -11 54 -32 23 -71 20 -95 -6z"/>
<path d="M5578 1460 c-52 -41 -40 -137 21 -158 37 -13 86 1 101 28 6 10 10 39
10 64 0 36 -5 48 -26 65 -33 26 -74 27 -106 1z m77 -24 c35 -25 17 -106 -24
-106 -26 0 -40 14 -47 47 -5 24 -1 36 15 52 25 25 31 26 56 7z"/>
<path d="M5740 1390 c0 -83 1 -90 20 -90 18 0 20 7 20 64 0 46 4 67 16 77 14
11 18 11 29 -5 8 -10 20 -16 29 -14 13 2 14 7 3 28 -15 31 -43 37 -67 15 -16
-14 -18 -14 -23 0 -4 8 -11 15 -17 15 -6 0 -10 -35 -10 -90z"/>
<path d="M5890 1390 c0 -83 1 -90 20 -90 18 0 20 7 20 64 0 71 17 99 48 79 13
-7 18 -28 20 -77 3 -58 5 -66 22 -66 18 0 20 7 19 58 -2 107 -23 136 -81 114
-21 -8 -34 -9 -36 -2 -2 5 -10 10 -18 10 -11 0 -14 -19 -14 -90z"/>
</g>
</svg>
